<svg width="115.99" height="122.88" xmlns="http://www.w3.org/2000/svg" data-name="Layer 1">
 <title>dialog</title>

 <g>
  <title>Layer 1</title>
  <path stroke="null" id="svg_1" d="m19.65,0l67.02457,0a19.70647,22.13632 0 0 1 19.65,22.0729l0,48.56037a19.70647,22.13632 0 0 1 -19.65,22.0729l-33.41629,0l-29.36207,28.36494a3.52345,3.9579 0 0 1 -4.95767,-0.444a3.45569,3.88179 0 0 1 -0.86957,-2.82888l1.53586,-25.09206a19.70647,22.13632 0 0 1 -19.60483,-22.0729l0,-48.56037a19.70647,22.13632 0 0 1 19.65,-22.0729zm55.58466,39.50287a6.77586,7.61134 0 1 1 -6.77586,7.61134a6.77586,7.61134 0 0 1 6.77586,-7.61134zm-22.07802,0a6.77586,7.61134 0 1 1 -6.77586,7.61134a6.77586,7.61134 0 0 1 6.77586,-7.61134zm-22.06672,0a6.77586,7.61134 0 1 1 -6.77586,7.61134a6.77586,7.61134 0 0 1 6.77586,-7.61134zm84.48371,-3.80567a19.05147,21.40056 0 0 1 15.42638,20.96925l0,48.6238a19.05147,21.40056 0 0 1 -18.995,21.2737l-0.68888,0l1.59233,25.87857l0,0a2.90233,3.26019 0 0 1 -0.67759,2.30877a2.86845,3.22214 0 0 1 -4.04293,0.3552l-29.55405,-29.37978l-38.91604,0l19.19828,-21.8953l40.65517,0a16.17172,18.16574 0 0 0 16.11526,-18.10231l0,-48.57305c0,-0.48205 0,-0.9641 0,-1.43347l-0.11293,-0.02537zm-28.89905,-27.76872l-67.02457,0a12.62569,14.18247 0 0 0 -12.59181,14.14441l0,48.56037a12.62569,14.18247 0 0 0 12.59181,14.14441l3.98647,0a3.53474,3.97058 0 0 1 3.28629,4.21161l-1.23095,19.90366l23.78328,-22.96089a3.54603,3.98327 0 0 1 2.48448,-1.15439l34.715,0a12.64828,14.20784 0 0 0 12.59181,-14.14441l0,-48.56037a12.64828,14.20784 0 0 0 -12.59181,-14.14441z"/>
  <line fill="none" id="svg_2" y2="130.44" x2="97.995" y1="107.44" x1="57.995" stroke="null"/>
  <ellipse ry="19.5" rx="50.5" id="svg_3" cy="130.94" cx="103.495" stroke="null" fill="#ffffff"/>
  <ellipse ry="9" rx="52" id="svg_4" cy="110.44" cx="110.995" stroke="null" fill="#ffffff"/>
  <ellipse ry="14" rx="26.5" id="svg_5" cy="118.44" cx="69.495" stroke="null" fill="#ffffff"/>
  <ellipse ry="13" rx="19" id="svg_6" cy="100.44" cx="108.995" stroke="null" fill="#ffffff"/>
  <ellipse ry="3" rx="10" id="svg_7" cy="106.44" cx="65.995" stroke="null" fill="#ffffff"/>
 </g>
</svg>